<svg viewBox="0 0 190 92" xmlns="http://www.w3.org/2000/svg" xml:space="preserve" style="fill-rule:evenodd;clip-rule:evenodd;stroke-linejoin:round;stroke-miterlimit:2">
	<desc>Traced by Dogo314</desc>
	<g transform="scale(.17593 .08518)"> d="M0 0h1080v1080H0z"/>
		<clipPath id="clip">
			<path d="M0 0h1080v1080H0z"/>
		</clipPath>
		<g clip-path="url(#clip)">
			<path id="white" style="fill:#fff" d="M60.586 76.414 51.172 67H68v3h64v-3h16.828l-9.414 9.414L137 74l-27 27 2.414 2.414L100 115.828l-12.414-12.414L90 101 63 74z" transform="matrix(5.68421 0 0 11.73913 -28.421 -469.565)"/>
			<path id="white2" style="fill:#fff" d="M135 97l-35 35-35-35h9l26 26 26-26z" transform="matrix(5.68421 0 0 11.73913 -28.421 -469.565)"/>
			<path id="grey" style="fill:#4a494a" d="M100 113 56 69h88z" transform="matrix(5.68421 0 0 11.73913 -28.421 -469.565)"/>
		</g>
	</g>
</svg>
