<svg viewBox="0 0 190 92" xmlns="http://www.w3.org/2000/svg" xml:space="preserve" style="fill-rule:evenodd;clip-rule:evenodd;stroke-linejoin:round;stroke-miterlimit:2">
  <desc>Traced by Dogo314</desc>
  <path style="fill:none" d="M0 0h1080v1080H0z" transform="scale(.17593 .08518)"/>
  <path d="M60.586 76.414 51.172 67H68v3h64v-3h16.828l-9.414 9.414L137 74l-27 27 2.414 2.414L100 115.828l-12.414-12.414L90 101 63 74zM53 76H19l-9-9h34zm128 0h-34l9-9h34zm-38 13-4 4h-9l13-13h19l-9 9zm-86 0H47l-9-9h19l13 13h-9zm78 8-35 35-35-35h9l26 26 26-26z" style="fill:#fff" transform="matrix(1.00002 0 0 .99994 -5 -39.998)"/>
  <path d="M100 113 56 69h88z" style="fill:#8c0c10" transform="matrix(1.00002 0 0 .99994 -5 -39.998)"/>
  <path d="M256 68.267 453.497 102.4 442 265l62 64-83 99-55-22-23 81-87 25-87-25-23-81-55 22-83-99 62-64-11.497-162.6zM364 248c-28.148 0-51 22.852-51 51s22.852 51 51 51 51-22.852 51-51-22.852-51-51-51m-216 0c-28.148 0-51 22.852-51 51s22.852 51 51 51 51-22.852 51-51-22.852-51-51-51m108 102-33 50 15.904 15.904L256 390l17.096 25.904L289 400zM58.808 67.708-5.689-136.533l102.4 125.155 11.378-79.644 91.022 113.778L256-68.267l56.889 91.023 91.022-113.778 11.378 79.644 102.4-125.155-64.497 204.241L256 33.627z" style="fill:#fff" transform="matrix(.0879 0 0 .08789 72.502 15)"/>
</svg>
