<svg viewBox="0 0 190 92" xmlns="http://www.w3.org/2000/svg" xml:space="preserve" style="fill-rule:evenodd;clip-rule:evenodd;stroke-linejoin:round;stroke-miterlimit:2">
  <desc>Traced by Dogo314</desc>
  <g transform="scale(.17593 .08518)">
    <path style="fill:none" d="M0 0h1080v1080H0z"/>
    <clipPath id="a">
      <path d="M0 0h1080v1080H0z"/>
    </clipPath>
    <g clip-path="url(#a)">
      <path d="M57.586 73.414 48.172 64H65v3h70v-3h16.828l-9.414 9.414L140 71l-30 30 2.414 2.414L100 115.828l-12.414-12.414L90 101 60 71zM51 74H17L7 64h34zm132 0h-34l10-10h34zm-38 13-6 6h-9l14-14h19l-8 8zm-89 1H46l-9-9h19l14 14h-9zm79 9-35 35-35-35h9l26 26 26-26z" style="fill:#fff" transform="matrix(5.68421 0 0 11.73913 -28.421 -469.565)"/>
      <path d="M100 113 53 66h94z" style="fill:#310c10" transform="matrix(5.68421 0 0 11.73913 -28.421 -469.565)"/>
      <path d="m65.776 205.261-94.22-34.594L-153.6-22.756 5.689 111.528 256 68.267l250.311 43.261L665.6-22.756 540.444 170.667l-94.22 34.594L442 265l62 64-83 99-55-22-23 81-87 25-87-25-23-81-55 22-83-99 62-64zM364 248c-28.148 0-51 22.852-51 51s22.852 51 51 51 51-22.852 51-51-22.852-51-51-51M256 350l-33 50 15.904 15.904L256 390l17.096 25.904L289 400zM148 248c-28.148 0-51 22.852-51 51s22.852 51 51 51 51-22.852 51-51-22.852-51-51-51M58.808 67.708-5.689-136.533l102.4 125.155 11.378-79.644 91.022 113.778L256-68.267l56.889 91.023 91.022-113.778 11.378 79.644 102.4-125.155-64.497 204.241L256 33.627z" style="fill:#fff" transform="matrix(.49959 0 0 1.03176 412.105 140.87)"/>
    </g>
  </g>
</svg>
